<mxfile host="app.diagrams.net" modified="2022-04-29T09:13:04.236Z" agent="5.0 (Windows NT 10.0; Win64; x64) AppleWebKit/537.36 (KHTML, like Gecko) Chrome/100.0.4896.127 Safari/537.36" etag="ydIQpK5a-dmtqPoQHBxG" version="17.4.6" type="github">
  <diagram id="TZ3Jopzv4MDcGjsun3s_" name="Page-1">
    <mxGraphModel dx="1038" dy="489" grid="1" gridSize="10" guides="1" tooltips="1" connect="1" arrows="1" fold="1" page="1" pageScale="1" pageWidth="850" pageHeight="1100" math="0" shadow="0">
      <root>
        <mxCell id="0" />
        <mxCell id="1" parent="0" />
        <mxCell id="01e_sWIjCME4lq3OwlQB-58" value="" style="group" vertex="1" connectable="0" parent="1">
          <mxGeometry x="50" y="70" width="969.09" height="410" as="geometry" />
        </mxCell>
        <mxCell id="01e_sWIjCME4lq3OwlQB-1" value="" style="rounded=1;whiteSpace=wrap;html=1;fillColor=#bac8d3;strokeColor=#23445d;" vertex="1" parent="01e_sWIjCME4lq3OwlQB-58">
          <mxGeometry x="136.66653846153847" width="695.7569230769232" height="347.87878787878793" as="geometry" />
        </mxCell>
        <mxCell id="01e_sWIjCME4lq3OwlQB-2" value="" style="ellipse;whiteSpace=wrap;html=1;" vertex="1" parent="01e_sWIjCME4lq3OwlQB-58">
          <mxGeometry y="74.54545454545456" width="74.54538461538463" height="198.7878787878788" as="geometry" />
        </mxCell>
        <mxCell id="01e_sWIjCME4lq3OwlQB-3" value="" style="rounded=1;whiteSpace=wrap;html=1;fillColor=#d0cee2;strokeColor=#56517e;" vertex="1" parent="01e_sWIjCME4lq3OwlQB-58">
          <mxGeometry x="894.5446153846156" y="24.84848484848485" width="74.54538461538463" height="285.7575757575758" as="geometry" />
        </mxCell>
        <mxCell id="01e_sWIjCME4lq3OwlQB-4" value="" style="whiteSpace=wrap;html=1;aspect=fixed;fillColor=#d5e8d4;strokeColor=#82b366;" vertex="1" parent="01e_sWIjCME4lq3OwlQB-58">
          <mxGeometry x="190.0907307692308" y="24.84848484848485" width="248.48300569156348" height="248.48300569156348" as="geometry" />
        </mxCell>
        <mxCell id="01e_sWIjCME4lq3OwlQB-5" value="" style="whiteSpace=wrap;html=1;aspect=fixed;fillColor=#f8cecc;strokeColor=#b85450;" vertex="1" parent="01e_sWIjCME4lq3OwlQB-58">
          <mxGeometry x="529.2722307692308" y="24.84848484848485" width="254.69508083385256" height="254.69508083385256" as="geometry" />
        </mxCell>
        <mxCell id="01e_sWIjCME4lq3OwlQB-6" value="Apache HTTP Server" style="text;html=1;strokeColor=none;fillColor=none;align=center;verticalAlign=middle;whiteSpace=wrap;rounded=0;fontStyle=1;fontSize=16;" vertex="1" parent="01e_sWIjCME4lq3OwlQB-58">
          <mxGeometry x="190.0907307692308" y="285.7575757575758" width="236.06038461538463" height="37.27272727272728" as="geometry" />
        </mxCell>
        <mxCell id="01e_sWIjCME4lq3OwlQB-7" value="Apache Tomcat Server" style="text;html=1;strokeColor=none;fillColor=none;align=center;verticalAlign=middle;whiteSpace=wrap;rounded=0;fontStyle=1;fontSize=16;" vertex="1" parent="01e_sWIjCME4lq3OwlQB-58">
          <mxGeometry x="540.4540384615385" y="285.7575757575758" width="236.06038461538463" height="37.27272727272728" as="geometry" />
        </mxCell>
        <mxCell id="01e_sWIjCME4lq3OwlQB-8" value="Elastic Beanstalk" style="text;html=1;strokeColor=none;fillColor=none;align=center;verticalAlign=middle;whiteSpace=wrap;rounded=0;fontStyle=1;fontSize=19;" vertex="1" parent="01e_sWIjCME4lq3OwlQB-58">
          <mxGeometry x="360.3026923076923" y="372.7272727272728" width="236.06038461538463" height="37.27272727272728" as="geometry" />
        </mxCell>
        <mxCell id="01e_sWIjCME4lq3OwlQB-9" value="Client" style="text;html=1;strokeColor=none;fillColor=none;align=center;verticalAlign=middle;whiteSpace=wrap;rounded=0;fontSize=19;rotation=-90;fontStyle=1" vertex="1" parent="01e_sWIjCME4lq3OwlQB-58">
          <mxGeometry x="-1.242423076923077" y="155.3030303030303" width="74.54538461538463" height="37.27272727272728" as="geometry" />
        </mxCell>
        <mxCell id="01e_sWIjCME4lq3OwlQB-10" value="" style="rounded=1;whiteSpace=wrap;html=1;fontSize=19;" vertex="1" parent="01e_sWIjCME4lq3OwlQB-58">
          <mxGeometry x="202.5149615384616" y="49.6969696969697" width="49.69692307692308" height="186.3636363636364" as="geometry" />
        </mxCell>
        <mxCell id="01e_sWIjCME4lq3OwlQB-11" value="" style="rounded=1;whiteSpace=wrap;html=1;fontSize=19;" vertex="1" parent="01e_sWIjCME4lq3OwlQB-58">
          <mxGeometry x="552.8782692307693" y="49.6969696969697" width="211.21192307692309" height="62.12121212121213" as="geometry" />
        </mxCell>
        <mxCell id="01e_sWIjCME4lq3OwlQB-13" value="Web Server" style="text;html=1;strokeColor=none;fillColor=none;align=center;verticalAlign=middle;whiteSpace=wrap;rounded=0;fontSize=17;rotation=-90;fontStyle=1" vertex="1" parent="01e_sWIjCME4lq3OwlQB-58">
          <mxGeometry x="165.24226923076927" y="124.24242424242426" width="124.2423076923077" height="37.27272727272728" as="geometry" />
        </mxCell>
        <mxCell id="01e_sWIjCME4lq3OwlQB-14" value="Application Server" style="text;html=1;strokeColor=none;fillColor=none;align=center;verticalAlign=middle;whiteSpace=wrap;rounded=0;fontSize=15;fontStyle=1" vertex="1" parent="01e_sWIjCME4lq3OwlQB-58">
          <mxGeometry x="577.7267307692308" y="55.90909090909092" width="161.51500000000001" height="49.6969696969697" as="geometry" />
        </mxCell>
        <mxCell id="01e_sWIjCME4lq3OwlQB-16" value="Tivo SingleMind" style="text;html=1;strokeColor=none;fillColor=none;align=center;verticalAlign=middle;whiteSpace=wrap;rounded=0;fontSize=22;fontStyle=1;rotation=-90;" vertex="1" parent="01e_sWIjCME4lq3OwlQB-58">
          <mxGeometry x="816.8931730769232" y="152.1969696969697" width="229.84826923076923" height="37.27272727272728" as="geometry" />
        </mxCell>
        <mxCell id="01e_sWIjCME4lq3OwlQB-17" value="" style="shape=document;whiteSpace=wrap;html=1;boundedLbl=1;fontSize=22;" vertex="1" parent="01e_sWIjCME4lq3OwlQB-58">
          <mxGeometry x="282.0300384615385" y="168.969696969697" width="149.09076923076927" height="99.3939393939394" as="geometry" />
        </mxCell>
        <mxCell id="01e_sWIjCME4lq3OwlQB-18" value="Cached Files&lt;br style=&quot;font-size: 11px;&quot;&gt;page1&lt;br style=&quot;font-size: 11px;&quot;&gt;page2&lt;br style=&quot;font-size: 11px;&quot;&gt;..." style="text;html=1;strokeColor=none;fillColor=none;align=left;verticalAlign=middle;whiteSpace=wrap;rounded=0;fontSize=11;fontStyle=1" vertex="1" parent="01e_sWIjCME4lq3OwlQB-58">
          <mxGeometry x="298.18153846153854" y="173.93939393939397" width="99.39384615384616" height="74.54545454545456" as="geometry" />
        </mxCell>
        <mxCell id="01e_sWIjCME4lq3OwlQB-23" value="" style="rounded=0;whiteSpace=wrap;html=1;fontSize=10;" vertex="1" parent="01e_sWIjCME4lq3OwlQB-58">
          <mxGeometry x="282.0300384615385" y="136.66666666666669" width="149.09076923076927" height="32.303030303030305" as="geometry" />
        </mxCell>
        <mxCell id="01e_sWIjCME4lq3OwlQB-19" value="PageSpeed" style="text;html=1;strokeColor=none;fillColor=none;align=left;verticalAlign=middle;whiteSpace=wrap;rounded=0;fontSize=13;fontStyle=1" vertex="1" parent="01e_sWIjCME4lq3OwlQB-58">
          <mxGeometry x="298.18153846153854" y="136.66666666666669" width="95.66657692307693" height="37.27272727272728" as="geometry" />
        </mxCell>
        <mxCell id="01e_sWIjCME4lq3OwlQB-24" value="" style="rhombus;whiteSpace=wrap;html=1;fontSize=10;" vertex="1" parent="01e_sWIjCME4lq3OwlQB-58">
          <mxGeometry x="298.18153846153854" y="37.27272727272728" width="115.54534615384618" height="68.33333333333334" as="geometry" />
        </mxCell>
        <mxCell id="01e_sWIjCME4lq3OwlQB-25" value="Simple/Same Page Request?" style="text;html=1;strokeColor=none;fillColor=none;align=center;verticalAlign=middle;whiteSpace=wrap;rounded=0;fontSize=8;fontStyle=1" vertex="1" parent="01e_sWIjCME4lq3OwlQB-58">
          <mxGeometry x="327.3784807692308" y="52.80303030303031" width="59.636307692307696" height="37.27272727272728" as="geometry" />
        </mxCell>
        <mxCell id="01e_sWIjCME4lq3OwlQB-26" value="" style="endArrow=classic;html=1;rounded=0;fontSize=8;exitX=0.5;exitY=1;exitDx=0;exitDy=0;entryX=0.5;entryY=0;entryDx=0;entryDy=0;" edge="1" parent="01e_sWIjCME4lq3OwlQB-58" source="01e_sWIjCME4lq3OwlQB-24" target="01e_sWIjCME4lq3OwlQB-23">
          <mxGeometry width="50" height="50" relative="1" as="geometry">
            <mxPoint x="447.2723076923078" y="161.51515151515153" as="sourcePoint" />
            <mxPoint x="509.3934615384616" y="99.3939393939394" as="targetPoint" />
          </mxGeometry>
        </mxCell>
        <mxCell id="01e_sWIjCME4lq3OwlQB-27" value="YES" style="text;html=1;strokeColor=none;fillColor=none;align=center;verticalAlign=middle;whiteSpace=wrap;rounded=0;fontSize=8;fontStyle=1" vertex="1" parent="01e_sWIjCME4lq3OwlQB-58">
          <mxGeometry x="347.8784615384616" y="101.87878787878789" width="49.69692307692308" height="24.84848484848485" as="geometry" />
        </mxCell>
        <mxCell id="01e_sWIjCME4lq3OwlQB-28" value="" style="endArrow=classic;html=1;rounded=0;fontSize=8;entryX=1;entryY=0.75;entryDx=0;entryDy=0;exitX=0;exitY=0.5;exitDx=0;exitDy=0;" edge="1" parent="01e_sWIjCME4lq3OwlQB-58" source="01e_sWIjCME4lq3OwlQB-23" target="01e_sWIjCME4lq3OwlQB-10">
          <mxGeometry width="50" height="50" relative="1" as="geometry">
            <mxPoint x="447.2723076923078" y="161.51515151515153" as="sourcePoint" />
            <mxPoint x="509.3934615384616" y="99.3939393939394" as="targetPoint" />
          </mxGeometry>
        </mxCell>
        <mxCell id="01e_sWIjCME4lq3OwlQB-29" value="" style="endArrow=classic;html=1;rounded=0;fontSize=8;exitX=0.975;exitY=0.143;exitDx=0;exitDy=0;exitPerimeter=0;entryX=0;entryY=0.5;entryDx=0;entryDy=0;" edge="1" parent="01e_sWIjCME4lq3OwlQB-58" source="01e_sWIjCME4lq3OwlQB-10" target="01e_sWIjCME4lq3OwlQB-24">
          <mxGeometry width="50" height="50" relative="1" as="geometry">
            <mxPoint x="447.2723076923078" y="161.51515151515153" as="sourcePoint" />
            <mxPoint x="509.3934615384616" y="99.3939393939394" as="targetPoint" />
          </mxGeometry>
        </mxCell>
        <mxCell id="01e_sWIjCME4lq3OwlQB-30" value="" style="endArrow=classic;html=1;rounded=0;fontSize=8;entryX=0;entryY=0.25;entryDx=0;entryDy=0;exitX=1;exitY=0;exitDx=0;exitDy=0;" edge="1" parent="01e_sWIjCME4lq3OwlQB-58" source="01e_sWIjCME4lq3OwlQB-2" target="01e_sWIjCME4lq3OwlQB-10">
          <mxGeometry width="50" height="50" relative="1" as="geometry">
            <mxPoint x="62.12115384615385" y="129.21212121212122" as="sourcePoint" />
            <mxPoint x="198.7876923076923" y="129.21212121212122" as="targetPoint" />
          </mxGeometry>
        </mxCell>
        <mxCell id="01e_sWIjCME4lq3OwlQB-31" value="" style="endArrow=classic;html=1;rounded=0;fontSize=8;entryX=1;entryY=1;entryDx=0;entryDy=0;exitX=0;exitY=0.75;exitDx=0;exitDy=0;" edge="1" parent="01e_sWIjCME4lq3OwlQB-58" source="01e_sWIjCME4lq3OwlQB-10" target="01e_sWIjCME4lq3OwlQB-2">
          <mxGeometry width="50" height="50" relative="1" as="geometry">
            <mxPoint x="447.2723076923078" y="161.51515151515153" as="sourcePoint" />
            <mxPoint x="509.3934615384616" y="99.3939393939394" as="targetPoint" />
          </mxGeometry>
        </mxCell>
        <mxCell id="01e_sWIjCME4lq3OwlQB-32" value="" style="endArrow=classic;html=1;rounded=0;fontSize=8;exitX=1;exitY=0.5;exitDx=0;exitDy=0;entryX=0;entryY=0.25;entryDx=0;entryDy=0;" edge="1" parent="01e_sWIjCME4lq3OwlQB-58" source="01e_sWIjCME4lq3OwlQB-24" target="01e_sWIjCME4lq3OwlQB-11">
          <mxGeometry width="50" height="50" relative="1" as="geometry">
            <mxPoint x="447.2723076923078" y="161.51515151515153" as="sourcePoint" />
            <mxPoint x="509.3934615384616" y="99.3939393939394" as="targetPoint" />
          </mxGeometry>
        </mxCell>
        <mxCell id="01e_sWIjCME4lq3OwlQB-33" value="" style="endArrow=classic;html=1;rounded=0;fontSize=8;entryX=0;entryY=0.25;entryDx=0;entryDy=0;exitX=1;exitY=0.25;exitDx=0;exitDy=0;" edge="1" parent="01e_sWIjCME4lq3OwlQB-58" source="01e_sWIjCME4lq3OwlQB-11" target="01e_sWIjCME4lq3OwlQB-3">
          <mxGeometry width="50" height="50" relative="1" as="geometry">
            <mxPoint x="764.0901923076923" y="74.54545454545456" as="sourcePoint" />
            <mxPoint x="826.2113461538462" y="12.424242424242426" as="targetPoint" />
          </mxGeometry>
        </mxCell>
        <mxCell id="01e_sWIjCME4lq3OwlQB-34" value="" style="group" vertex="1" connectable="0" parent="01e_sWIjCME4lq3OwlQB-58">
          <mxGeometry x="552.8782692307693" y="227.3636363636364" width="211.21192307692309" height="41" as="geometry" />
        </mxCell>
        <mxCell id="01e_sWIjCME4lq3OwlQB-12" value="" style="rounded=1;whiteSpace=wrap;html=1;fontSize=10;" vertex="1" parent="01e_sWIjCME4lq3OwlQB-34">
          <mxGeometry width="211.21192307692309" height="41" as="geometry" />
        </mxCell>
        <mxCell id="01e_sWIjCME4lq3OwlQB-15" value="Velocity Template Engine" style="text;html=1;strokeColor=none;fillColor=none;align=center;verticalAlign=middle;whiteSpace=wrap;rounded=0;fontSize=10;fontStyle=1" vertex="1" parent="01e_sWIjCME4lq3OwlQB-34">
          <mxGeometry y="12.424242424242426" width="211.21192307692309" height="16.151515151515152" as="geometry" />
        </mxCell>
        <mxCell id="01e_sWIjCME4lq3OwlQB-35" value="" style="group" vertex="1" connectable="0" parent="01e_sWIjCME4lq3OwlQB-58">
          <mxGeometry x="552.8782692307693" y="147.22727272727275" width="167.7271153846154" height="41" as="geometry" />
        </mxCell>
        <mxCell id="01e_sWIjCME4lq3OwlQB-21" value="" style="rounded=1;whiteSpace=wrap;html=1;fontSize=10;" vertex="1" parent="01e_sWIjCME4lq3OwlQB-35">
          <mxGeometry width="93.1817307692308" height="41" as="geometry" />
        </mxCell>
        <mxCell id="01e_sWIjCME4lq3OwlQB-22" value="Memcache" style="text;html=1;strokeColor=none;fillColor=none;align=center;verticalAlign=middle;whiteSpace=wrap;rounded=0;fontSize=10;fontStyle=1" vertex="1" parent="01e_sWIjCME4lq3OwlQB-35">
          <mxGeometry y="12.424242424242426" width="93.1817307692308" height="16.151515151515152" as="geometry" />
        </mxCell>
        <mxCell id="01e_sWIjCME4lq3OwlQB-50" value="Template Response" style="text;html=1;strokeColor=none;fillColor=none;align=center;verticalAlign=middle;whiteSpace=wrap;rounded=0;fontSize=9;rotation=-90;fontStyle=0" vertex="1" parent="01e_sWIjCME4lq3OwlQB-35">
          <mxGeometry x="43.4848076923077" y="11.181818181818183" width="124.2423076923077" height="27.95454545454546" as="geometry" />
        </mxCell>
        <mxCell id="01e_sWIjCME4lq3OwlQB-38" value="" style="endArrow=classic;html=1;rounded=0;fontSize=8;exitX=0;exitY=0.75;exitDx=0;exitDy=0;entryX=1;entryY=0.75;entryDx=0;entryDy=0;" edge="1" parent="01e_sWIjCME4lq3OwlQB-58" source="01e_sWIjCME4lq3OwlQB-3" target="01e_sWIjCME4lq3OwlQB-11">
          <mxGeometry width="50" height="50" relative="1" as="geometry">
            <mxPoint x="447.2723076923078" y="285.7575757575758" as="sourcePoint" />
            <mxPoint x="509.3934615384616" y="223.63636363636368" as="targetPoint" />
          </mxGeometry>
        </mxCell>
        <mxCell id="01e_sWIjCME4lq3OwlQB-39" value="" style="endArrow=classic;html=1;rounded=0;fontSize=8;exitX=0.75;exitY=1;exitDx=0;exitDy=0;entryX=0.75;entryY=0;entryDx=0;entryDy=0;" edge="1" parent="01e_sWIjCME4lq3OwlQB-58" source="01e_sWIjCME4lq3OwlQB-11" target="01e_sWIjCME4lq3OwlQB-12">
          <mxGeometry width="50" height="50" relative="1" as="geometry">
            <mxPoint x="447.2723076923078" y="285.7575757575758" as="sourcePoint" />
            <mxPoint x="509.3934615384616" y="223.63636363636368" as="targetPoint" />
          </mxGeometry>
        </mxCell>
        <mxCell id="01e_sWIjCME4lq3OwlQB-41" value="" style="endArrow=classic;html=1;rounded=0;fontSize=8;exitX=0.566;exitY=0;exitDx=0;exitDy=0;exitPerimeter=0;entryX=0.58;entryY=1.19;entryDx=0;entryDy=0;entryPerimeter=0;" edge="1" parent="01e_sWIjCME4lq3OwlQB-58" source="01e_sWIjCME4lq3OwlQB-12" target="01e_sWIjCME4lq3OwlQB-14">
          <mxGeometry width="50" height="50" relative="1" as="geometry">
            <mxPoint x="723.7114423076924" y="111.81818181818184" as="sourcePoint" />
            <mxPoint x="672.1508846153847" y="161.51515151515153" as="targetPoint" />
          </mxGeometry>
        </mxCell>
        <mxCell id="01e_sWIjCME4lq3OwlQB-42" value="" style="endArrow=classic;html=1;rounded=0;fontSize=8;entryX=1;entryY=0.5;entryDx=0;entryDy=0;exitX=0;exitY=0.75;exitDx=0;exitDy=0;" edge="1" parent="01e_sWIjCME4lq3OwlQB-58" source="01e_sWIjCME4lq3OwlQB-11" target="01e_sWIjCME4lq3OwlQB-4">
          <mxGeometry width="50" height="50" relative="1" as="geometry">
            <mxPoint x="447.2723076923078" y="285.7575757575758" as="sourcePoint" />
            <mxPoint x="509.3934615384616" y="223.63636363636368" as="targetPoint" />
          </mxGeometry>
        </mxCell>
        <mxCell id="01e_sWIjCME4lq3OwlQB-43" value="NO" style="text;html=1;strokeColor=none;fillColor=none;align=center;verticalAlign=middle;whiteSpace=wrap;rounded=0;fontSize=8;fontStyle=1;rotation=-4;" vertex="1" parent="01e_sWIjCME4lq3OwlQB-58">
          <mxGeometry x="404.22234807692314" y="55.89666666666669" width="49.69692307692308" height="12.424242424242426" as="geometry" />
        </mxCell>
        <mxCell id="01e_sWIjCME4lq3OwlQB-46" value="" style="endArrow=classic;startArrow=classic;html=1;rounded=0;fontSize=8;entryX=0.174;entryY=1.15;entryDx=0;entryDy=0;entryPerimeter=0;exitX=0.5;exitY=0;exitDx=0;exitDy=0;" edge="1" parent="01e_sWIjCME4lq3OwlQB-58" source="01e_sWIjCME4lq3OwlQB-21" target="01e_sWIjCME4lq3OwlQB-14">
          <mxGeometry width="50" height="50" relative="1" as="geometry">
            <mxPoint x="447.2723076923078" y="186.3636363636364" as="sourcePoint" />
            <mxPoint x="509.3934615384616" y="124.24242424242426" as="targetPoint" />
          </mxGeometry>
        </mxCell>
        <mxCell id="01e_sWIjCME4lq3OwlQB-47" value="Request" style="text;html=1;strokeColor=none;fillColor=none;align=center;verticalAlign=middle;whiteSpace=wrap;rounded=0;fontSize=10;fontStyle=1;rotation=15;" vertex="1" parent="01e_sWIjCME4lq3OwlQB-58">
          <mxGeometry x="800.1204615384617" y="55.90909090909092" width="74.54538461538463" height="24.83606060606061" as="geometry" />
        </mxCell>
        <mxCell id="01e_sWIjCME4lq3OwlQB-48" value="Response" style="text;html=1;strokeColor=none;fillColor=none;align=center;verticalAlign=middle;whiteSpace=wrap;rounded=0;fontSize=10;fontStyle=1;rotation=-132;" vertex="1" parent="01e_sWIjCME4lq3OwlQB-58">
          <mxGeometry x="798.8780384615385" y="188.84848484848487" width="74.54538461538463" height="24.84848484848485" as="geometry" />
        </mxCell>
        <mxCell id="01e_sWIjCME4lq3OwlQB-49" value="Template Request" style="text;html=1;strokeColor=none;fillColor=none;align=center;verticalAlign=middle;whiteSpace=wrap;rounded=0;fontSize=9;rotation=90;fontStyle=0" vertex="1" parent="01e_sWIjCME4lq3OwlQB-58">
          <mxGeometry x="666.249375" y="156.85606060606062" width="124.2423076923077" height="27.95454545454546" as="geometry" />
        </mxCell>
        <mxCell id="01e_sWIjCME4lq3OwlQB-53" value="Response" style="text;html=1;strokeColor=none;fillColor=none;align=center;verticalAlign=middle;whiteSpace=wrap;rounded=0;fontSize=11;fontStyle=1;rotation=-205;" vertex="1" parent="01e_sWIjCME4lq3OwlQB-58">
          <mxGeometry x="469.6359230769231" y="115.54545454545456" width="74.54538461538463" height="37.27272727272728" as="geometry" />
        </mxCell>
        <mxCell id="01e_sWIjCME4lq3OwlQB-54" value="Request" style="text;html=1;strokeColor=none;fillColor=none;align=center;verticalAlign=middle;whiteSpace=wrap;rounded=0;fontSize=10;fontStyle=1;rotation=-5;" vertex="1" parent="01e_sWIjCME4lq3OwlQB-58">
          <mxGeometry x="465.90865384615387" y="43.48484848484849" width="74.54538461538463" height="24.83606060606061" as="geometry" />
        </mxCell>
        <mxCell id="01e_sWIjCME4lq3OwlQB-56" value="Request" style="text;html=1;strokeColor=none;fillColor=none;align=center;verticalAlign=middle;whiteSpace=wrap;rounded=0;fontSize=10;fontStyle=1;rotation=-5;" vertex="1" parent="01e_sWIjCME4lq3OwlQB-58">
          <mxGeometry x="94.42415384615386" y="77.0178787878788" width="74.54538461538463" height="24.83606060606061" as="geometry" />
        </mxCell>
        <mxCell id="01e_sWIjCME4lq3OwlQB-57" value="Response" style="text;html=1;strokeColor=none;fillColor=none;align=center;verticalAlign=middle;whiteSpace=wrap;rounded=0;fontSize=11;fontStyle=1;rotation=-205;" vertex="1" parent="01e_sWIjCME4lq3OwlQB-58">
          <mxGeometry x="99.39384615384616" y="213.69696969696972" width="74.54538461538463" height="37.27272727272728" as="geometry" />
        </mxCell>
      </root>
    </mxGraphModel>
  </diagram>
</mxfile>
